<?xml version="1.0" encoding="UTF-8" standalone="no"?>
<svg
   xmlns:dc="http://purl.org/dc/elements/1.1/"
   xmlns:cc="http://creativecommons.org/ns#"
   xmlns:rdf="http://www.w3.org/1999/02/22-rdf-syntax-ns#"
   xmlns:svg="http://www.w3.org/2000/svg"
   xmlns="http://www.w3.org/2000/svg"
   xmlns:xlink="http://www.w3.org/1999/xlink"
   xmlns:sodipodi="http://sodipodi.sourceforge.net/DTD/sodipodi-0.dtd"
   xmlns:inkscape="http://www.inkscape.org/namespaces/inkscape"
   version="1.1"
   x="0px"
   y="0px"
   width="17.99975"
   height="15.969"
   viewBox="0 0 17.99975 15.969"
   enable-background="new 0 0 40 16"
   xml:space="preserve"
   id="svg2"
   inkscape:version="0.48.5 r10040"
   sodipodi:docname="heart-icons-red.svg"><metadata
     id="metadata52"><rdf:RDF><cc:Work
         rdf:about=""><dc:format>image/svg+xml</dc:format><dc:type
           rdf:resource="http://purl.org/dc/dcmitype/StillImage" /></cc:Work></rdf:RDF></metadata><defs
     id="defs50"><linearGradient
       inkscape:collect="always"
       xlink:href="#SVGID_4_"
       id="linearGradient3797"
       gradientUnits="userSpaceOnUse"
       gradientTransform="matrix(1,0,0,-1,-113,-94.031)"
       x1="118.8701"
       y1="-95.648399"
       x2="125.3656"
       y2="-104.9249" /></defs><sodipodi:namedview
     pagecolor="#ffffff"
     bordercolor="#666666"
     borderopacity="1"
     objecttolerance="10"
     gridtolerance="10"
     guidetolerance="10"
     inkscape:pageopacity="0"
     inkscape:pageshadow="2"
     inkscape:window-width="1916"
     inkscape:window-height="1039"
     id="namedview48"
     showgrid="false"
     inkscape:zoom="20.187899"
     inkscape:cx="-5.5894407"
     inkscape:cy="4.1816728"
     inkscape:window-x="0"
     inkscape:window-y="39"
     inkscape:window-maximized="0"
     inkscape:current-layer="svg2"
     fit-margin-top="1"
     fit-margin-left="1"
     fit-margin-right="1"
     fit-margin-bottom="1" /><linearGradient
     id="SVGID_1_"
     gradientUnits="userSpaceOnUse"
     x1="93.4795"
     y1="-94.708504"
     x2="102.5057"
     y2="-105.4655"
     gradientTransform="matrix(1,0,0,-1,-90,-94)"><stop
       offset="0"
       style="stop-color:#F39C9C"
       id="stop5" /><stop
       offset="0.5757"
       style="stop-color:#E97F7F"
       id="stop7" /><stop
       offset="0.8252"
       style="stop-color:#E36666"
       id="stop9" /></linearGradient><linearGradient
     id="SVGID_2_"
     gradientUnits="userSpaceOnUse"
     x1="94.871101"
     y1="-95.647903"
     x2="101.3658"
     y2="-104.9233"
     gradientTransform="matrix(1,0,0,-1,-90,-94)"><stop
       offset="0"
       style="stop-color:#FAADAD"
       id="stop14" /><stop
       offset="0.3465"
       style="stop-color:#F39C9C"
       id="stop16" /><stop
       offset="0.5757"
       style="stop-color:#E97F7F"
       id="stop18" /><stop
       offset="0.8252"
       style="stop-color:#E36666"
       id="stop20" /></linearGradient><linearGradient
     id="SVGID_3_"
     gradientUnits="userSpaceOnUse"
     x1="117.4795"
     y1="-94.7061"
     x2="126.5061"
     y2="-105.4636"
     gradientTransform="matrix(1,0,0,-1,-113,-94.031)"
     xlink:href="#SVGID_4_"><stop
       offset="0"
       style="stop-color:#b8dbff;stop-opacity:1;"
       id="stop27" /><stop
       offset="0.82520002"
       style="stop-color:#86c6ff;stop-opacity:1;"
       id="stop31" /></linearGradient><path
     d="M 15.616,2.483 C 14.722,1.526 13.534,1 12.271,1 11.042,1 9.8859998,1.498 8.9999998,2.404 8.1159998,1.498 6.9579998,1 5.7289998,1 c -1.263,0 -2.451,0.527 -3.345,1.483 -1.8449999,1.973 -1.8449999,5.185 -0.002,7.16 0.116,0.125 0.276,0.295 5.505,4.443 l 1.113,0.883 L 10.113,14.086 c 5.229,-4.148 5.387,-4.318 5.503,-4.441 1.845,-1.976 1.845,-5.188 0,-7.162 z"
     id="path33"
     style="fill:url(#SVGID_3_);fill-opacity:1"
     inkscape:connector-curvature="0" /><linearGradient
     id="SVGID_4_"
     gradientUnits="userSpaceOnUse"
     x1="118.8701"
     y1="-95.648399"
     x2="125.3656"
     y2="-104.9249"
     gradientTransform="matrix(1,0,0,-1,-90,-94)"><stop
       offset="0"
       style="stop-color:#b8dbff;stop-opacity:1;"
       id="stop36" /><stop
       offset="0.82520002"
       style="stop-color:#86c6ff;stop-opacity:1;"
       id="stop42" /></linearGradient><path
     d="M 14.645,3.465 C 13.981,2.756 13.096,2.364 12.158,2.364 c -0.944,0 -1.824,0.384 -2.4550002,1.06 l -0.703,0.638 -0.66,-0.597 c -0.637,-0.68 -1.544,-1.069 -2.492,-1.069 -0.947,0 -1.856,0.389 -2.492,1.07 -1.351,1.444 -1.351,3.796 0,5.245 0.058,0.059 0.359,0.343 5.105,4.109 l 0.539,0.43 0.539,-0.43 C 14.289,9.049 14.586,8.77 14.644,8.709 15.996,7.263 15.996,4.91 14.645,3.465 z"
     id="path44"
     style="fill:url(#linearGradient3797);fill-opacity:1"
     inkscape:connector-curvature="0" /><path
     stroke-miterlimit="10"
     d="m 8.4609998,12.821 c -4.746,-3.767 -5.049,-4.051 -5.105,-4.108 -1.351,-1.449 -1.351,-3.801 0,-5.245 0.636,-0.681 1.545,-1.07 2.492,-1.07 0.948,0 1.855,0.389 2.492,1.069 l 0.66,0.595 0.701,-0.637 C 10.332,2.749 11.212,2.365 12.156,2.365 c 0.939,0 1.822,0.392 2.488,1.101 1.352,1.445 1.352,3.798 0,5.244 -0.06,0.062 -0.355,0.341 -5.1050002,4.11 l -0.539,0.43 -0.539,-0.429 z"
     id="path46"
     style="fill:none;stroke:#e7e7ff;stroke-width:0.75;stroke-miterlimit:10;stroke-opacity:1"
     inkscape:connector-curvature="0" /></svg>
