<?xml version="1.0" encoding="utf-8"?>
<!-- Generator: Adobe Illustrator 14.0.0, SVG Export Plug-In . SVG Version: 6.00 Build 43363)  -->
<!DOCTYPE svg PUBLIC "-//W3C//DTD SVG 1.1//EN" "http://www.w3.org/Graphics/SVG/1.1/DTD/svg11.dtd">
<svg version="1.1" id="Layer_1" xmlns="http://www.w3.org/2000/svg" xmlns:xlink="http://www.w3.org/1999/xlink" x="0px" y="0px"
	 width="40px" height="16px" viewBox="0 0 40 16" enable-background="new 0 0 40 16" xml:space="preserve">
<g id="Heart_1">
	<g>
		
			<linearGradient id="SVGID_1_" gradientUnits="userSpaceOnUse" x1="362.9004" y1="1194.9922" x2="373.0995" y2="1205.1914" gradientTransform="matrix(1 0 0 1 -360 -1194.0293)">
			<stop  offset="0" style="stop-color:#FCB3B3"/>
			<stop  offset="0.1472" style="stop-color:#FAADAD"/>
			<stop  offset="0.3465" style="stop-color:#F39C9C"/>
			<stop  offset="0.5757" style="stop-color:#E97F7F"/>
			<stop  offset="0.8252" style="stop-color:#DB5858"/>
			<stop  offset="1" style="stop-color:#CF3838"/>
		</linearGradient>
		<path fill="url(#SVGID_1_)" d="M6.887,14.087c-5.23-4.149-5.389-4.319-5.505-4.444c-1.843-1.975-1.843-5.187,0.002-7.159
			C2.277,1.527,3.466,1,4.729,1C5.958,1,7.115,1.498,8,2.404C8.887,1.498,10.043,1,11.271,1c1.263,0,2.451,0.526,3.345,1.483
			c1.845,1.974,1.845,5.186,0,7.162c-0.116,0.123-0.274,0.293-5.503,4.441L8,14.971L6.887,14.087z"/>
		<path fill="#FFDBD9" d="M8,13.102L7.722,12.88c-1.547-1.228-5.165-4.104-5.348-4.299c-1.297-1.39-1.297-3.649,0.001-5.039
			c1.258-1.345,3.449-1.347,4.71,0L8,4.399l0.938-0.878C9.545,2.871,10.381,2.5,11.271,2.5c0.889,0,1.725,0.371,2.354,1.043
			c1.298,1.39,1.298,3.649,0,5.039c-0.182,0.195-3.8,3.07-5.347,4.299L8,13.102z M4.729,3.5c-0.64,0-1.241,0.268-1.694,0.751
			c-0.934,0.999-0.934,2.625,0,3.625C3.23,8.059,6.013,10.279,8,11.857c1.986-1.578,4.771-3.798,4.975-3.992
			c0.923-0.989,0.923-2.615-0.011-3.614c-0.905-0.969-2.483-0.969-3.388,0L8,5.728L6.446,4.274C5.971,3.767,5.369,3.5,4.729,3.5z"/>
	</g>
</g>
<g id="Heart_2">
	<g>
		
			<linearGradient id="SVGID_2_" gradientUnits="userSpaceOnUse" x1="386.9014" y1="1194.9932" x2="397.1006" y2="1205.1924" gradientTransform="matrix(1 0 0 1 -360 -1194.0293)">
			<stop  offset="0" style="stop-color:#FCBEBE"/>
			<stop  offset="0.1472" style="stop-color:#FBB9B9"/>
			<stop  offset="0.3465" style="stop-color:#F5ABAB"/>
			<stop  offset="0.5757" style="stop-color:#EC9292"/>
			<stop  offset="0.8252" style="stop-color:#E07171"/>
			<stop  offset="1" style="stop-color:#D65656"/>
		</linearGradient>
		<path fill="url(#SVGID_2_)" d="M30.887,14.087c-5.229-4.149-5.389-4.319-5.505-4.444c-1.843-1.975-1.843-5.187,0.002-7.159
			C26.277,1.527,27.466,1,28.729,1C29.958,1,31.115,1.498,32,2.404C32.887,1.498,34.043,1,35.271,1c1.263,0,2.451,0.526,3.345,1.483
			c1.845,1.974,1.845,5.186,0,7.162c-0.116,0.123-0.274,0.293-5.503,4.441L32,14.971L30.887,14.087z"/>
		<path fill="#FFDBD9" d="M32,13.102l-0.277-0.222c-1.548-1.228-5.166-4.104-5.349-4.299c-1.297-1.39-1.297-3.649,0.001-5.039
			c1.258-1.345,3.449-1.347,4.71,0L32,4.399l0.938-0.878c0.607-0.65,1.443-1.021,2.334-1.021c0.89,0,1.726,0.371,2.354,1.043
			c1.298,1.39,1.298,3.649,0,5.039c-0.183,0.195-3.8,3.07-5.349,4.299L32,13.102z M28.729,3.5c-0.64,0-1.24,0.268-1.692,0.751
			c-0.935,0.999-0.935,2.625,0,3.625c0.194,0.183,2.979,2.403,4.965,3.981c1.985-1.578,4.771-3.798,4.976-3.992
			C37.9,6.876,37.9,5.25,36.965,4.251c-0.904-0.969-2.482-0.969-3.388,0L32,5.728l-1.555-1.454C29.971,3.767,29.369,3.5,28.729,3.5z
			"/>
	</g>
</g>
</svg>
